<svg xmlns="http://www.w3.org/2000/svg" width="32.739" height="33.139" viewBox="0 0 32.739 33.139">
  <g id="Grupo_1338" data-name="Grupo 1338" transform="translate(1 1.724)">
    <path id="Trazado_68209" data-name="Trazado 68209" d="M-82.657,612.425l-1.847,1.847-4.741-4.741,1.877-1.817,4.712,4.712Zm-10.206-15.892a6.812,6.812,0,0,1,6.811,6.812,6.811,6.811,0,0,1-6.811,6.811,6.811,6.811,0,0,1-6.811-6.811,6.812,6.812,0,0,1,6.811-6.812Zm0,2.349a4.462,4.462,0,0,1,4.462,4.462m1.457-4.033V589.228l-8.679-4.958-8.679,4.958-8.679-4.958v21.219l8.679,4.958,5.055-2.888m-5.055,2.888V589.228m8.691,7.638v-12.5" transform="translate(112.982 -584.27)" fill="none" stroke="#fff" stroke-miterlimit="10" stroke-width="2"/>
  </g>
</svg>
