<svg xmlns="http://www.w3.org/2000/svg" width="35.468" height="37.065" viewBox="0 0 35.468 37.065">
  <g id="Grupo_1341" data-name="Grupo 1341" transform="translate(1 1)">
    <g id="Grupo_1339" data-name="Grupo 1339" transform="translate(5.829 2.214)">
      <path id="Trazado_68210" data-name="Trazado 68210" d="M-91.562,648.869A10.567,10.567,0,0,1-81,659.436,10.567,10.567,0,0,1-91.562,670a10.567,10.567,0,0,1-10.568-10.568,10.567,10.567,0,0,1,10.568-10.567Z" transform="translate(102.13 -648.869)" fill="none" stroke="#fff" stroke-miterlimit="10" stroke-width="2"/>
      <line id="Línea_16" data-name="Línea 16" y2="21.126" transform="translate(10.568)" fill="none" stroke="#fff" stroke-miterlimit="10" stroke-width="2"/>
      <line id="Línea_17" data-name="Línea 17" x2="21.126" transform="translate(0.005 10.567)" fill="none" stroke="#fff" stroke-miterlimit="10" stroke-width="2"/>
      <path id="Trazado_68211" data-name="Trazado 68211" d="M-84.149,652.022a11.383,11.383,0,0,1-7.474,2.416,11.392,11.392,0,0,1-7.463-2.406" transform="translate(102.184 -648.813)" fill="none" stroke="#fff" stroke-miterlimit="10" stroke-width="2"/>
      <path id="Trazado_68212" data-name="Trazado 68212" d="M-84.149,666.523a11.378,11.378,0,0,0-7.474-2.416,11.392,11.392,0,0,0-7.463,2.406" transform="translate(102.184 -648.598)" fill="none" stroke="#fff" stroke-miterlimit="10" stroke-width="2"/>
      <path id="Trazado_68213" data-name="Trazado 68213" d="M-91.749,669.881a12.72,12.72,0,0,1-5.286-10.427,12.723,12.723,0,0,1,5.265-10.412" transform="translate(102.221 -648.866)" fill="none" stroke="#fff" stroke-miterlimit="10" stroke-width="2"/>
      <path id="Trazado_68214" data-name="Trazado 68214" d="M-91.5,669.881a12.72,12.72,0,0,0,5.287-10.427,12.721,12.721,0,0,0-5.265-10.412" transform="translate(102.319 -648.866)" fill="none" stroke="#fff" stroke-miterlimit="10" stroke-width="2"/>
    </g>
    <g id="Grupo_1340" data-name="Grupo 1340">
      <path id="Trazado_68215" data-name="Trazado 68215" d="M-104.294,646.694h26.341a3.573,3.573,0,0,1,3.563,3.563V668.33a3.573,3.573,0,0,1-3.563,3.562h-8.729l-4.442,8.674-4.441-8.674h-8.73a3.573,3.573,0,0,1-3.563-3.562V650.257a3.573,3.573,0,0,1,3.563-3.563Z" transform="translate(107.857 -646.694)" fill="none" stroke="#fff" stroke-miterlimit="10" stroke-width="2"/>
    </g>
  </g>
</svg>
