<svg xmlns="http://www.w3.org/2000/svg" width="32.641" height="28.502" viewBox="0 0 32.641 28.502">
  <g id="Grupo_5738" data-name="Grupo 5738" transform="translate(-280.089 -133.13)">
    <path id="Trazado_70312" data-name="Trazado 70312" d="M283.355,136.832c0-.6,0-1.15,0-1.7,0-.619.106-.765.682-.96a18.991,18.991,0,0,1,12.084-.107,1.084,1.084,0,0,0,.612-.005,18.959,18.959,0,0,1,12.118.132c.495.169.614.335.615.85,0,.577,0,1.154,0,1.789h.382c.716,0,1.432,0,2.148,0a.644.644,0,0,1,.729.711c0,.1,0,.2,0,.3q0,11.379,0,22.757c0,.857-.175,1.03-1.04,1.03H281.133c-.86,0-1.042-.181-1.042-1.035V137.84c0-.113-.006-.227,0-.339a.657.657,0,0,1,.709-.667C281.63,136.827,282.457,136.832,283.355,136.832Zm-1.924,1.31v22.145H311.4V138.155h-1.932v14.158q0,3.033,0,6.067c0,.644-.371.907-.99.711-.072-.023-.142-.047-.214-.071a17.528,17.528,0,0,0-11.338.025,1.5,1.5,0,0,1-1.02,0,17.1,17.1,0,0,0-8.9-.64c-.895.173-1.771.447-2.65.694-.607.17-.957-.056-1-.683-.008-.125,0-.251,0-.377v-19.9Zm14.313,18.239a9.761,9.761,0,0,1-9.018-8.911,9.5,9.5,0,0,1,1.863-6.512A9.657,9.657,0,0,1,295.742,137v-1.638c-.084-.033-.163-.07-.246-.1a17.7,17.7,0,0,0-10.448-.056.444.444,0,0,0-.376.52q.015,10.721.008,21.441v.435a19.1,19.1,0,0,1,11.064.012Zm12.407,1.222v-.41q0-10.736.008-21.472a.451.451,0,0,0-.392-.516,18.679,18.679,0,0,0-4.212-.73,17.591,17.591,0,0,0-6.231.8c-.095.03-.225.151-.228.235-.022.485-.011.972-.011,1.489a9.675,9.675,0,0,1,6.57,3.241,9.457,9.457,0,0,1,2.465,6.866,9.765,9.765,0,0,1-9,9.3v1.2A19.244,19.244,0,0,1,308.151,157.6ZM302.9,152.02a8.265,8.265,0,0,0,1.878-4.663h-3.627c-.14,1.055-.28,2.083-.407,3.112a.3.3,0,0,0,.119.237C301.532,151.145,302.206,151.573,302.9,152.02Zm-12.973,0c.694-.447,1.369-.872,2.029-1.319a.423.423,0,0,0,.1-.339c-.077-.671-.182-1.339-.262-2.009-.039-.33-.045-.665-.066-1h-3.685A8.318,8.318,0,0,0,289.93,152.022Zm1.766-6,.369-3.235-2.123-1.444a8.253,8.253,0,0,0-1.887,4.679Zm13.087,0a8.273,8.273,0,0,0-1.881-4.649c-.713.454-1.389.877-2.052,1.319a.4.4,0,0,0-.089.318c.059.5.151.988.209,1.484s.092,1.014.138,1.529Zm-11.772,1.334.3,2.723,2.419-.469v-2.254Zm.005-1.34h2.72v-2.235l-2.428-.469Zm6.513,4.064.275-2.716h-2.7v2.246Zm-2.443-4.062h2.719c-.093-.922-.184-1.812-.272-2.687-.813.136-1.562.258-2.309.393a.241.241,0,0,0-.132.185C297.082,144.6,297.086,145.3,297.086,146.014Zm-1.342,4.9-2.115.459a6.532,6.532,0,0,0,2.115,3.537Zm-.005-12.448a6.573,6.573,0,0,0-2.106,3.553l2.106.443Zm1.375.014v3.98l2.085-.444A6.623,6.623,0,0,0,297.114,138.481Zm0,16.429a6.677,6.677,0,0,0,2.088-3.548l-2.088-.432Zm-3.54-16.118a7.97,7.97,0,0,0-2.691,1.611l1.5,1.047Zm-2.7,14.2a8,8,0,0,0,2.691,1.582l-1.182-2.642Zm8.4-14.2,1.187,2.657,1.5-1.056A8.149,8.149,0,0,0,299.266,138.8Zm0,15.784a8.01,8.01,0,0,0,2.694-1.6l-1.512-1.047Z" fill="#fff"/>
  </g>
</svg>
