<svg xmlns="http://www.w3.org/2000/svg" xmlns:xlink="http://www.w3.org/1999/xlink" width="39.424" height="39.424" viewBox="0 0 39.424 39.424">
  <defs>
    <clipPath id="clip-path">
      <rect width="26.76" height="26.761" fill="none"/>
    </clipPath>
  </defs>
  <g id="Grupo_5737" data-name="Grupo 5737" transform="translate(4863.346 -11916)">
    <g id="Grupo_5676" data-name="Grupo 5676" transform="translate(-4863.346 11916)">
      <g id="Símbolo_9_63" data-name="Símbolo 9 – 63" transform="translate(5.885 6.841)" clip-path="url(#clip-path)">
        <path id="Unión_1" data-name="Unión 1" d="M0,26.761V23.416c0-3.68,6.021-6.691,13.38-6.691s13.38,3.011,13.38,6.691v3.345ZM6.689,6.691a6.69,6.69,0,1,1,6.691,6.69A6.691,6.691,0,0,1,6.689,6.691Z" transform="translate(0 0)" fill="#fff"/>
      </g>
      <g id="Trazado_70303" data-name="Trazado 70303" transform="translate(0 0)" fill="none">
        <path d="M19.712,0A19.712,19.712,0,1,1,0,19.712,19.712,19.712,0,0,1,19.712,0Z" stroke="none"/>
        <path d="M 19.7119255065918 1.999996185302734 C 14.98089599609375 1.999996185302734 10.53304481506348 3.842353820800781 7.187694549560547 7.187694549560547 C 3.842353820800781 10.53304481506348 1.999996185302734 14.98089599609375 1.999996185302734 19.7119255065918 C 1.999996185302734 24.44294548034668 3.842353820800781 28.89080429077148 7.187694549560547 32.23614501953125 C 10.53304481506348 35.58148574829102 14.98089599609375 37.42384719848633 19.7119255065918 37.42384719848633 C 24.44294548034668 37.42384719848633 28.89080429077148 35.58148574829102 32.23614501953125 32.23614501953125 C 35.58148574829102 28.89080429077148 37.42384719848633 24.44294548034668 37.42384719848633 19.7119255065918 C 37.42384719848633 14.98089599609375 35.58148574829102 10.53304481506348 32.23614501953125 7.187694549560547 C 28.89080429077148 3.842353820800781 24.44294548034668 1.999996185302734 19.7119255065918 1.999996185302734 M 19.7119255065918 -3.814697265625e-06 C 30.59851455688477 -3.814697265625e-06 39.42384719848633 8.825325012207031 39.42384719848633 19.7119255065918 C 39.42384719848633 30.59851455688477 30.59851455688477 39.42384719848633 19.7119255065918 39.42384719848633 C 8.825325012207031 39.42384719848633 -3.814697265625e-06 30.59851455688477 -3.814697265625e-06 19.7119255065918 C -3.814697265625e-06 8.825325012207031 8.825325012207031 -3.814697265625e-06 19.7119255065918 -3.814697265625e-06 Z" stroke="none" fill="#fff"/>
      </g>
      <path id="Trazado_70302" data-name="Trazado 70302" d="M9227.129,12189.3c.7-.872,19.106,0,19.106,0h5.787v2.982a25.236,25.236,0,0,1-14.375,3.334C9229.586,12194.908,9226.433,12190.169,9227.129,12189.3Z" transform="translate(-9220.348 -12157.645)" fill="#fff"/>
    </g>
  </g>
</svg>
