<svg xmlns="http://www.w3.org/2000/svg" width="32.944" height="28.503" viewBox="0 0 32.944 28.503">
  <g id="Grupo_1342" data-name="Grupo 1342" transform="translate(1 0)">
    <path id="Trazado_68216" data-name="Trazado 68216" d="M-107.89,707.717h27.21a1.873,1.873,0,0,1,1.867,1.867v21.693a1.874,1.874,0,0,1-1.867,1.868h-27.21a1.874,1.874,0,0,1-1.867-1.868V709.584a1.873,1.873,0,0,1,1.867-1.867Zm4.182-2.075v4.331m6.282-4.331v4.331m6.282-4.331v4.331m6.282-4.331v4.331m-19.343,6.858v1.088m4.966-1.088v1.088m4.967-1.088v1.088m4.967-1.088v1.088m-14.9,9.887v1.106m4.966-1.106v1.106m4.967-1.106v1.106m9.906-12.1V717.9m-19.839,4.413v1.106m13.756-2.5h2.162a.9.9,0,0,1,.9.9v2.153a.9.9,0,0,1-.9.9h-2.162a.9.9,0,0,1-.9-.9v-2.153a.9.9,0,0,1,.9-.9Zm6.082,1.4v1.106m-9.933-1.106v1.106m-4.967-1.106v1.106" transform="translate(109.757 -705.642)" fill="none" stroke="#fff" stroke-miterlimit="10" stroke-width="2"/>
    <line id="Línea_18" data-name="Línea 18" x2="30.944" transform="translate(0 6.972)" fill="none" stroke="#fff" stroke-miterlimit="10" stroke-width="2"/>
  </g>
</svg>
