<svg xmlns="http://www.w3.org/2000/svg" width="14.667" height="52.447" viewBox="0 0 14.667 52.447">
  <g id="Grupo_5623" data-name="Grupo 5623" transform="translate(0 52.447) rotate(-90)">
    <g id="Grupo_5075" data-name="Grupo 5075" transform="translate(0)">
      <path id="Trazado_70134" data-name="Trazado 70134" d="M45.89,6.241a6.389,6.389,0,0,1-4.6-1.915c-.774-.678-1.121-.952-1.955-.952s-1.181.274-1.956.952a6.381,6.381,0,0,1-4.6,1.915,6.383,6.383,0,0,1-4.6-1.915c-.774-.678-1.121-.952-1.954-.952s-1.182.274-1.955.952a6.389,6.389,0,0,1-4.6,1.915,6.383,6.383,0,0,1-4.6-1.915c-.774-.678-1.121-.952-1.955-.952s-1.181.274-1.955.952a6.389,6.389,0,0,1-4.6,1.915,6.383,6.383,0,0,1-4.6-1.915C1.181,3.648.833,3.374,0,3.374V0A6.383,6.383,0,0,1,4.6,1.916c.772.677,1.12.952,1.955.952s1.181-.275,1.955-.952a6.482,6.482,0,0,1,9.2,0c.774.677,1.12.952,1.955.952s1.181-.275,1.954-.952a6.482,6.482,0,0,1,9.2,0c.774.677,1.12.952,1.954.952s1.181-.275,1.955-.952a6.482,6.482,0,0,1,9.2,0c.774.677,1.12.952,1.955.952s1.182-.275,1.955-.952A6.384,6.384,0,0,1,52.447,0V3.374c-.835,0-1.182.274-1.956.952A6.382,6.382,0,0,1,45.89,6.241Z" fill="#fef033"/>
    </g>
    <g id="Grupo_5076" data-name="Grupo 5076" transform="translate(0 8.426)">
      <path id="Trazado_70135" data-name="Trazado 70135" d="M45.89,6.241a6.383,6.383,0,0,1-4.6-1.916c-.774-.677-1.121-.952-1.955-.952s-1.181.275-1.956.952a6.376,6.376,0,0,1-4.6,1.916,6.377,6.377,0,0,1-4.6-1.916c-.774-.677-1.121-.952-1.954-.952s-1.182.275-1.955.952a6.383,6.383,0,0,1-4.6,1.916,6.377,6.377,0,0,1-4.6-1.916c-.774-.677-1.121-.952-1.955-.952s-1.181.275-1.955.952a6.383,6.383,0,0,1-4.6,1.916,6.377,6.377,0,0,1-4.6-1.916C1.181,3.648.833,3.373,0,3.373V0A6.383,6.383,0,0,1,4.6,1.916c.772.677,1.12.952,1.955.952s1.181-.275,1.955-.952a6.482,6.482,0,0,1,9.2,0c.774.677,1.12.952,1.955.952s1.181-.275,1.954-.952a6.482,6.482,0,0,1,9.2,0c.774.677,1.12.952,1.954.952s1.181-.275,1.955-.952a6.482,6.482,0,0,1,9.2,0c.774.677,1.12.952,1.955.952s1.182-.275,1.955-.952A6.385,6.385,0,0,1,52.447,0V3.373c-.835,0-1.182.275-1.956.952A6.377,6.377,0,0,1,45.89,6.241Z" fill="#fef033"/>
    </g>
  </g>
</svg>
