<svg xmlns="http://www.w3.org/2000/svg" width="24.078" height="86.103" viewBox="0 0 24.078 86.103">
  <g id="Grupo_5097" data-name="Grupo 5097" transform="translate(-57.842 110.925) rotate(-90)">
    <g id="Grupo_5075" data-name="Grupo 5075" transform="translate(24.822 57.842)">
      <path id="Trazado_70134" data-name="Trazado 70134" d="M100.16,69.322c-3.957,0-6.034-2.036-7.554-3.522-1.27-1.247-1.841-1.751-3.209-1.751s-1.939.5-3.211,1.751c-1.517,1.486-3.594,3.522-7.551,3.522S72.6,67.286,71.081,65.8c-1.27-1.247-1.841-1.751-3.209-1.751s-1.941.5-3.209,1.751c-1.52,1.486-3.6,3.522-7.554,3.522s-6.037-2.036-7.554-3.522c-1.27-1.247-1.841-1.751-3.209-1.751s-1.939.5-3.209,1.751c-1.52,1.486-3.6,3.522-7.554,3.522s-6.037-2.036-7.554-3.522c-1.27-1.247-1.841-1.751-3.209-1.751V57.842c3.957,0,6.034,2.036,7.554,3.525,1.268,1.244,1.838,1.751,3.209,1.751s1.939-.507,3.209-1.751c1.517-1.489,3.594-3.525,7.554-3.525s6.034,2.036,7.554,3.525c1.27,1.244,1.838,1.751,3.209,1.751s1.939-.507,3.209-1.751c1.517-1.489,3.594-3.525,7.554-3.525s6.034,2.036,7.554,3.525c1.27,1.244,1.838,1.751,3.209,1.751s1.939-.507,3.209-1.751c1.517-1.489,3.6-3.525,7.554-3.525s6.034,2.036,7.554,3.525c1.27,1.244,1.838,1.751,3.209,1.751s1.941-.507,3.209-1.751c1.52-1.489,3.6-3.525,7.556-3.525v6.207c-1.37,0-1.941.5-3.211,1.751C106.2,67.286,104.119,69.322,100.16,69.322Z" transform="translate(-24.822 -57.842)" fill="#ff1d50"/>
    </g>
    <g id="Grupo_5076" data-name="Grupo 5076" transform="translate(24.822 70.44)">
      <path id="Trazado_70135" data-name="Trazado 70135" d="M100.16,74.222c-3.957,0-6.034-2.036-7.554-3.525-1.27-1.244-1.841-1.751-3.209-1.751s-1.939.507-3.211,1.751c-1.517,1.489-3.594,3.525-7.551,3.525S72.6,72.186,71.081,70.7c-1.27-1.244-1.841-1.751-3.209-1.751s-1.941.507-3.209,1.751c-1.52,1.489-3.6,3.525-7.554,3.525s-6.037-2.036-7.554-3.525c-1.27-1.244-1.841-1.751-3.209-1.751s-1.939.507-3.209,1.751c-1.52,1.489-3.6,3.525-7.554,3.525s-6.037-2.036-7.554-3.525c-1.27-1.244-1.841-1.751-3.209-1.751v-6.2c3.957,0,6.034,2.036,7.554,3.525,1.268,1.244,1.838,1.751,3.209,1.751s1.939-.507,3.209-1.751c1.517-1.489,3.594-3.525,7.554-3.525s6.034,2.036,7.554,3.525c1.27,1.244,1.838,1.751,3.209,1.751s1.939-.507,3.209-1.751c1.517-1.489,3.594-3.525,7.554-3.525s6.034,2.036,7.554,3.525c1.27,1.244,1.838,1.751,3.209,1.751s1.939-.507,3.209-1.751c1.517-1.489,3.6-3.525,7.554-3.525s6.034,2.036,7.554,3.525c1.27,1.244,1.838,1.751,3.209,1.751s1.941-.507,3.209-1.751c1.52-1.489,3.6-3.525,7.556-3.525v6.2c-1.37,0-1.941.507-3.211,1.751C106.2,72.186,104.119,74.222,100.16,74.222Z" transform="translate(-24.822 -62.742)" fill="#ff1d50"/>
    </g>
  </g>
</svg>
